<?xml version="1.0" encoding="UTF-8"?>
<svg version="1.1" xmlns="http://www.w3.org/2000/svg" width="109" height="115">
<path d="M0 0 C-0.02320313 0.87100342 -0.04640625 1.74200684 -0.0703125 2.6394043 C-1.07750703 20.38288014 -1.07750703 20.38288014 5.58984375 35.84765625 C8.86130726 38.67038251 12.38505607 40.97551033 16.22241211 42.95800781 C18.21310559 44.12491892 19.56439637 45.18791163 21 47 C21.34057617 48.90112305 21.34057617 48.90112305 21.29296875 51.01171875 C21.28330078 51.76904297 21.27363281 52.52636719 21.26367188 53.30664062 C21.23853516 54.09232422 21.21339844 54.87800781 21.1875 55.6875 C21.16719727 56.88342773 21.16719727 56.88342773 21.14648438 58.10351562 C21.11117089 60.06929967 21.05736447 62.03473582 21 64 C21.63808594 63.98839844 22.27617188 63.97679687 22.93359375 63.96484375 C23.75988281 63.95582031 24.58617188 63.94679687 25.4375 63.9375 C26.67306641 63.92009766 26.67306641 63.92009766 27.93359375 63.90234375 C30 64 30 64 31 65 C31.08847743 67.52094076 31.11527301 70.01430893 31.09765625 72.53515625 C31.0962413 73.28840683 31.09482635 74.04165741 31.09336853 74.81773376 C31.08775376 77.2326956 31.07519883 79.64756601 31.0625 82.0625 C31.0574869 83.69596221 31.05292366 85.32942586 31.04882812 86.96289062 C31.03777954 90.97529585 31.02050506 94.98763241 31 99 C33.97 99 36.94 99 40 99 C41.125 103.75 41.125 103.75 40 106 C8.32 106 -23.36 106 -56 106 C-56 103.69 -56 101.38 -56 99 C-52.7 99 -49.4 99 -46 99 C-46.05760498 97.70900391 -46.11520996 96.41800781 -46.17456055 95.08789062 C-46.37448171 90.27299732 -46.50021962 85.45846518 -46.60424805 80.640625 C-46.65938634 78.56056945 -46.73432486 76.48093686 -46.82983398 74.40234375 C-47.60254713 57.14646087 -47.60254713 57.14646087 -43.74853516 51.984375 C-40.91223754 49.91914272 -38.2057467 48.41397343 -35 47 C-31.98040114 45.51003029 -30.48235023 44.43753002 -28 42 C-27.38362347 37.9133925 -27.74734625 33.9235672 -28 29.8125 C-28.15654961 18.76906577 -28.15654961 18.76906577 -25.67236328 14.96923828 C-22.23770717 11.75559997 -18.19172546 9.79921521 -13.92089844 7.91015625 C-11.0906831 6.56914929 -8.68528739 4.75017176 -6.1875 2.875 C-2.23271889 0 -2.23271889 0 0 0 Z M-9 15 C-11.04937407 19.23935068 -11.24800445 22.72274061 -11.24291992 27.40478516 C-11.24481827 28.1322142 -11.24671661 28.85964325 -11.24867249 29.6091156 C-11.25236344 32.00254247 -11.24170148 34.39566281 -11.23046875 36.7890625 C-11.22927604 38.4562476 -11.22882398 40.12343339 -11.2290802 41.7906189 C-11.22751832 45.27907538 -11.21925005 48.76742881 -11.20581055 52.25585938 C-11.1887948 56.72937088 -11.18499715 61.20276951 -11.18575573 65.67630959 C-11.18548399 69.11635416 -11.18000264 72.55637401 -11.17275429 75.99641037 C-11.16957086 77.64625232 -11.16760097 79.29609707 -11.16686058 80.94594193 C-11.16469506 83.24867795 -11.15594698 85.55129369 -11.14526367 87.85400391 C-11.14145187 89.16462799 -11.13764008 90.47525208 -11.13371277 91.82559204 C-11.14527371 95.0242163 -11.14527371 95.0242163 -10 98 C-9.01 98 -8.02 98 -7 98 C-7 70.61 -7 43.22 -7 15 C-7.66 15 -8.32 15 -9 15 Z M-20 22 C-20 47.41 -20 72.82 -20 99 C-19.01 99 -18.02 99 -17 99 C-17 73.26 -17 47.52 -17 21 C-18.2236068 20.9254644 -18.2236068 20.9254644 -20 22 Z M1 40 C1 59.14 1 78.28 1 98 C4.96 98 8.92 98 13 98 C13.27307932 91.18676641 13.47204355 84.37675134 13.60424805 77.55932617 C13.65937917 75.24365733 13.73431054 72.92836821 13.82983398 70.61401367 C15.09231029 57.30140445 15.09231029 57.30140445 10.53759766 45.42529297 C6.27598427 41.65433906 6.27598427 41.65433906 1 40 Z M-29 52 C-30.20050456 52.98077719 -30.20050456 52.98077719 -30.12025452 54.82862854 C-30.11803391 55.62582809 -30.11581329 56.42302765 -30.11352539 57.24438477 C-30.11344986 58.14524307 -30.11337433 59.04610138 -30.11329651 59.97425842 C-30.10813522 60.95341721 -30.10297394 61.93257599 -30.09765625 62.94140625 C-30.0962413 63.93881332 -30.09482635 64.9362204 -30.09336853 65.96385193 C-30.08775114 69.16343124 -30.07519571 72.36294169 -30.0625 75.5625 C-30.05748724 77.72591045 -30.05292395 79.88932199 -30.04882812 82.05273438 C-30.03777607 87.36851325 -30.02102104 92.68425171 -30 98 C-29.01 98.33 -28.02 98.66 -27 99 C-27 83.49 -27 67.98 -27 52 C-27.66 52 -28.32 52 -29 52 Z M-38 58 C-40.40991818 59.96814623 -40.40991818 59.96814623 -40.22705078 63.71533203 C-40.22673351 65.31286052 -40.21539982 66.91041027 -40.1953125 68.5078125 C-40.1924826 69.34843231 -40.18965271 70.18905212 -40.18673706 71.05514526 C-40.1755243 73.74524046 -40.15041803 76.4350051 -40.125 79.125 C-40.1149716 80.94660978 -40.10584551 82.76822477 -40.09765625 84.58984375 C-40.07558142 89.06002358 -40.04104434 93.52995571 -40 98 C-38.68 98 -37.36 98 -36 98 C-36 84.8 -36 71.6 -36 58 C-36.66 58 -37.32 58 -38 58 Z M21 72 C21 80.91 21 89.82 21 99 C21.99 99 22.98 99 24 99 C24 90.09 24 81.18 24 72 C23.01 72 22.02 72 21 72 Z " fill="#F7CA36" transform="translate(62,4)"/>
<path d="M0 0 C0.33 0 0.66 0 1 0 C3.29458246 8.64545854 3.25942475 17.19851363 3.1953125 26.0703125 C3.19157458 27.60301528 3.1887313 29.13572047 3.18673706 30.66842651 C3.17916183 34.66982821 3.15956714 38.67108084 3.1373291 42.67242432 C3.11673775 46.76857488 3.10770714 50.86474992 3.09765625 54.9609375 C3.07631441 62.97402615 3.04225389 70.98699444 3 79 C3.99 79.33 4.98 79.66 6 80 C5.01 80.66 4.02 81.32 3 82 C2.67 82.66 2.34 83.32 2 84 C3.65 84.33 5.3 84.66 7 85 C7 85.33 7 85.66 7 86 C-8.84 86 -24.68 86 -41 86 C-41.33 84.68 -41.66 83.36 -42 82 C-37.545 81.505 -37.545 81.505 -33 81 C-32.98018066 79.70787598 -32.96036133 78.41575195 -32.93994141 77.08447266 C-32.86401632 72.30220655 -32.77527922 67.52024995 -32.68261719 62.73828125 C-32.64427315 60.66640319 -32.60942995 58.59445731 -32.578125 56.52246094 C-32.53259191 53.54858113 -32.47457882 50.57517038 -32.4140625 47.6015625 C-32.40251129 46.67131256 -32.39096008 45.74106262 -32.37905884 44.78262329 C-32.35918915 43.92188202 -32.33931946 43.06114075 -32.31884766 42.17431641 C-32.30552399 41.41486725 -32.29220032 40.65541809 -32.2784729 39.87295532 C-32 38 -32 38 -30 36 C-27.375 35.875 -27.375 35.875 -25 36 C-25 36.66 -25 37.32 -25 38 C-26.485 38.495 -26.485 38.495 -28 39 C-28 52.2 -28 65.4 -28 79 C-26.02 79 -24.04 79 -22 79 C-22.01047363 77.90534424 -22.02094727 76.81068848 -22.03173828 75.68286133 C-22.06801444 71.6107919 -22.09092817 67.53873669 -22.10986328 63.46655273 C-22.11990351 61.70611161 -22.13353844 59.94568709 -22.15087891 58.18530273 C-22.17521436 55.65083715 -22.18650296 53.11659261 -22.1953125 50.58203125 C-22.20563507 49.79850784 -22.21595764 49.01498444 -22.22659302 48.2077179 C-22.22744694 44.02244596 -21.89203832 40.76116269 -20 37 C-19.67 37 -19.34 37 -19 37 C-18.67 51.19 -18.34 65.38 -18 80 C-16.02 80 -14.04 80 -12 80 C-12 64.16 -12 48.32 -12 32 C-18.32917961 31.47825081 -18.32917961 31.47825081 -21 33 C-20.67 32.01 -20.34 31.02 -20 30 C-19.34 30 -18.68 30 -18 30 C-18 28.68 -18 27.36 -18 26 C-16.68 25.67 -15.36 25.34 -14 25 C-13.34 22.36 -12.68 19.72 -12 17 C-11.01 17 -10.02 17 -9 17 C-8.09184882 24.60145297 -7.79679105 32.13823437 -7.68359375 39.7890625 C-7.66281265 40.97349945 -7.64203156 42.1579364 -7.62062073 43.37826538 C-7.5557248 47.12712324 -7.49652158 50.87604553 -7.4375 54.625 C-7.39425764 57.180996 -7.35064161 59.7369857 -7.30664062 62.29296875 C-7.20010569 68.52857958 -7.09823286 74.76425315 -7 81 C-5.68 81 -4.36 81 -3 81 C-2.99191315 80.02947189 -2.98382629 79.05894379 -2.97549438 78.05900574 C-2.89807302 68.92109716 -2.81034397 59.78333822 -2.71247292 50.64562511 C-2.66248676 45.94761812 -2.61615696 41.24963386 -2.578125 36.55151367 C-2.54130144 32.01916832 -2.49494956 27.48701216 -2.44193649 22.95482826 C-2.42337694 21.22407659 -2.40827476 19.49328434 -2.39665604 17.76247215 C-2.37982018 15.34169435 -2.35079208 12.92135134 -2.31884766 10.50073242 C-2.31668747 9.78216064 -2.31452728 9.06358887 -2.31230164 8.32324219 C-2.25050766 4.66753062 -2.08549027 3.1282354 0 0 Z " fill="#F8CD32" transform="translate(49,23)"/>
<path d="M0 0 C0.01345459 0.90242432 0.02690918 1.80484863 0.04077148 2.73461914 C0.11216165 6.1125241 0.22302768 9.4844715 0.36010742 12.86010742 C0.41124571 14.31537071 0.44701201 15.77126452 0.46655273 17.22729492 C0.3976518 25.96443037 0.3976518 25.96443037 4.10595703 33.55810547 C6.33472544 35.29159201 8.48522329 36.72416546 11 38 C7.98968256 38.93423645 7.13349732 39.04449911 4 38 C3.67 37.01 3.34 36.02 3 35 C2.01 34.67 1.02 34.34 0 34 C-1.11911712 30.64264863 -1.11365586 28.11794614 -1.09765625 24.58203125 C-1.09443359 23.32841797 -1.09121094 22.07480469 -1.08789062 20.78320312 C-1.07951172 19.47287109 -1.07113281 18.16253906 -1.0625 16.8125 C-1.05748317 15.47721519 -1.05292059 14.14192859 -1.04882812 12.80664062 C-1.03702695 9.53771527 -1.02056297 6.26888009 -1 3 C-1.99 3 -2.98 3 -4 3 C-4.66 4.32 -5.32 5.64 -6 7 C-6.66 7 -7.32 7 -8 7 C-7.01 8.485 -7.01 8.485 -6 10 C-5.81549805 12.83959994 -5.74781092 15.57965823 -5.77294922 18.41870117 C-5.77265717 19.27745346 -5.77236511 20.13620575 -5.77206421 21.02098083 C-5.77345845 23.86174597 -5.7890241 26.70224939 -5.8046875 29.54296875 C-5.80841729 31.51166134 -5.81126442 33.48035579 -5.81326294 35.4490509 C-5.82090204 40.63256956 -5.84055293 45.81597628 -5.8626709 50.99945068 C-5.88312335 56.28802984 -5.89226337 61.57662707 -5.90234375 66.86523438 C-5.92379853 77.24353879 -5.95793785 87.62176009 -6 98 C-6.33 98 -6.66 98 -7 98 C-7 70.61 -7 43.22 -7 15 C-7.99 15.495 -7.99 15.495 -9 16 C-9.46523063 17.89533342 -9.46523063 17.89533342 -9.625 20.0625 C-9.74875 21.361875 -9.8725 22.66125 -10 24 C-10.66 24 -11.32 24 -12 24 C-12.33 23.01 -12.66 22.02 -13 21 C-14.91363309 22.91363309 -14.17394957 26.45028214 -14.18945312 29.05834961 C-14.19774643 29.79655441 -14.20603973 30.53475922 -14.21458435 31.29533386 C-14.23202215 32.90336365 -14.24717866 34.51141937 -14.26036072 36.11948967 C-14.28132602 38.66156143 -14.30835396 41.20350304 -14.33703613 43.74549866 C-14.39683584 49.14278283 -14.44893585 54.54012704 -14.5 59.9375 C-14.55916022 66.18617724 -14.62142682 72.43479052 -14.69187927 78.68335152 C-14.71851565 81.19276523 -14.73929437 83.70218511 -14.7598877 86.21165466 C-14.77648776 87.74519152 -14.79335935 89.27872547 -14.81054688 90.81225586 C-14.81473129 91.51415039 -14.81891571 92.21604492 -14.82322693 92.93920898 C-14.88615933 97.77231866 -14.88615933 97.77231866 -16 100 C-17.32 99.67 -18.64 99.34 -20 99 C-19.01 99 -18.02 99 -17 99 C-17.33 73.59 -17.66 48.18 -18 22 C-18.66 22 -19.32 22 -20 22 C-20 47.08 -20 72.16 -20 98 C-20.33 98 -20.66 98 -21 98 C-21.33 77.54 -21.66 57.08 -22 36 C-22.99 36 -23.98 36 -25 36 C-24.938125 37.3921875 -24.938125 37.3921875 -24.875 38.8125 C-25 42 -25 42 -27 45 C-27.99 44.67 -28.98 44.34 -30 44 C-29.34 43.34 -28.68 42.68 -28 42 C-27.87647431 39.53766643 -27.87647431 39.53766643 -28.11328125 36.6875 C-28.74031899 19.63566399 -28.74031899 19.63566399 -25.65039062 14.95605469 C-22.22245096 11.74704557 -18.18442385 9.79598558 -13.92089844 7.91015625 C-11.0906831 6.56914929 -8.68528739 4.75017176 -6.1875 2.875 C-2.23271889 0 -2.23271889 0 0 0 Z " fill="#E9C44A" transform="translate(62,4)"/>
<path d="M0 0 C1.984375 0.95703125 1.984375 0.95703125 4 3 C4.52039056 5.90294794 4.37530743 8.75000457 4.25 11.6875 C4.23195313 12.48478516 4.21390625 13.28207031 4.1953125 14.10351562 C4.14822247 16.06952449 4.07647899 18.03491494 4 20 C4.63808594 19.98839844 5.27617188 19.97679688 5.93359375 19.96484375 C6.75988281 19.95582031 7.58617188 19.94679688 8.4375 19.9375 C9.26121094 19.92589844 10.08492188 19.91429688 10.93359375 19.90234375 C13 20 13 20 14 21 C14.08847743 23.52094076 14.11527301 26.01430893 14.09765625 28.53515625 C14.0962413 29.28840683 14.09482635 30.04165741 14.09336853 30.81773376 C14.08775376 33.2326956 14.07519883 35.64756601 14.0625 38.0625 C14.0574869 39.69596221 14.05292366 41.32942586 14.04882812 42.96289062 C14.03777954 46.97529585 14.02050506 50.98763241 14 55 C16.97 55 19.94 55 23 55 C24.125 59.75 24.125 59.75 23 62 C-8.68 62 -40.36 62 -73 62 C-73 59.69 -73 57.38 -73 55 C-69.7 55 -66.4 55 -63 55 C-63.05760498 53.70900391 -63.11520996 52.41800781 -63.17456055 51.08789062 C-63.37448171 46.27299732 -63.50021962 41.45846518 -63.60424805 36.640625 C-63.65938634 34.56056945 -63.73432486 32.48093686 -63.82983398 30.40234375 C-64.60357602 13.12348414 -64.60357602 13.12348414 -60.64306641 7.87890625 C-57.82131301 5.80283158 -55.2263939 4.34317076 -52 3 C-50.66476327 2.33715379 -49.33059417 1.67211709 -48 1 C-48 2.66666667 -48 4.33333333 -48 6 C-45.03 6.495 -45.03 6.495 -42 7 C-42 22.84 -42 38.68 -42 55 C-42.66 55 -43.32 55 -44 55 C-44 39.49 -44 23.98 -44 8 C-44.99 8.495 -44.99 8.495 -46 9 C-46 24.18 -46 39.36 -46 55 C-46.66 55 -47.32 55 -48 55 C-48.7331282 49.65677385 -49.18393686 44.39424611 -49.31640625 39 C-49.33718735 38.2788501 -49.35796844 37.5577002 -49.37937927 36.81469727 C-49.44401934 34.54321493 -49.50335551 32.27163138 -49.5625 30 C-49.6057669 28.44660471 -49.64938358 26.89321913 -49.69335938 25.33984375 C-49.79961096 21.55999576 -49.9011108 17.78004748 -50 14 C-51.26625424 17.79876271 -51.23298547 21.42421926 -51.31640625 25.38671875 C-51.33718735 26.20372757 -51.35796844 27.02073639 -51.37937927 27.86250305 C-51.44473079 30.47075034 -51.50369273 33.07909775 -51.5625 35.6875 C-51.60569892 37.45639054 -51.64931365 39.22527097 -51.69335938 40.99414062 C-51.80039743 45.32932463 -51.90170544 49.66460929 -52 54 C-52.33 54 -52.66 54 -53 54 C-53 40.8 -53 27.6 -53 14 C-53.99 14.66 -54.98 15.32 -56 16 C-56.33767042 18.90156324 -56.48908344 21.5999689 -56.51171875 24.5078125 C-56.52966995 25.34843231 -56.54762115 26.18905212 -56.56611633 27.05514526 C-56.62038031 29.74504551 -56.65416586 32.43476676 -56.6875 35.125 C-56.72065895 36.94663959 -56.75514727 38.7682555 -56.79101562 40.58984375 C-56.87611572 45.05976695 -56.94284956 49.52963559 -57 54 C-57.33 54 -57.66 54 -58 54 C-58.33 40.47 -58.66 26.94 -59 13 C-58.34 12.67 -57.68 12.34 -57 12 C-56.34 12.33 -55.68 12.66 -55 13 C-55 12.34 -55 11.68 -55 11 C-56.98 11.66 -58.96 12.32 -61 13 C-61.02505615 14.29736084 -61.0501123 15.59472168 -61.07592773 16.93139648 C-61.16981752 21.72658856 -61.27008249 26.5216295 -61.37231445 31.31665039 C-61.41573334 33.39539057 -61.45740312 35.47416803 -61.49731445 37.55297852 C-61.55484921 40.53413145 -61.61859119 43.51509549 -61.68359375 46.49609375 C-61.70866249 47.89921059 -61.70866249 47.89921059 -61.73423767 49.33067322 C-61.75418289 50.19149002 -61.77412811 51.05230682 -61.79467773 51.93920898 C-61.81022202 52.70087875 -61.8257663 53.46254852 -61.84178162 54.24729919 C-62 56 -62 56 -63 57 C-64.51928038 57.07179964 -66.04167482 57.08392007 -67.5625 57.0625 C-68.38878906 57.05347656 -69.21507813 57.04445312 -70.06640625 57.03515625 C-70.70449219 57.02355469 -71.34257813 57.01195312 -72 57 C-71.67 57.99 -71.34 58.98 -71 60 C-40.31 60.33 -9.62 60.66 22 61 C22 59.35 22 57.7 22 56 C18.7 56 15.4 56 12 56 C12 44.45 12 32.9 12 21 C8.7 21 5.4 21 2 21 C1.93941406 19.73542969 1.87882812 18.47085938 1.81640625 17.16796875 C1.73199096 15.50780129 1.64734345 13.84764563 1.5625 12.1875 C1.52318359 11.35412109 1.48386719 10.52074219 1.44335938 9.66210938 C1.40146484 8.85966797 1.35957031 8.05722656 1.31640625 7.23046875 C1.27974854 6.49207764 1.24309082 5.75368652 1.20532227 4.99291992 C1.05157859 2.792505 1.05157859 2.792505 0 0 Z " fill="#E6C551" transform="translate(79,48)"/>
<path d="M0 0 C6.43368355 3.91615521 6.43368355 3.91615521 8 8 C8.22705078 10.10644531 8.22705078 10.10644531 8.1953125 12.328125 C8.18886719 13.12734375 8.18242188 13.9265625 8.17578125 14.75 C8.15902344 15.575 8.14226562 16.4 8.125 17.25 C8.11597656 18.09046875 8.10695313 18.9309375 8.09765625 19.796875 C8.07415817 21.86470604 8.03828908 23.93238995 8 26 C11.3 26 14.6 26 18 26 C18 28.97 18 31.94 18 35 C17.67 34.34 17.34 33.68 17 33 C16.34 33 15.68 33 15 33 C15.01047363 33.80743652 15.02094727 34.61487305 15.03173828 35.44677734 C15.07319831 39.08948682 15.09929438 42.73214675 15.125 46.375 C15.14175781 47.64601562 15.15851563 48.91703125 15.17578125 50.2265625 C15.18222656 51.43828125 15.18867187 52.65 15.1953125 53.8984375 C15.20578613 55.01911621 15.21625977 56.13979492 15.22705078 57.29443359 C15 60 15 60 13 62 C10.29730234 62.08579993 7.69246104 62.09596891 5 62 C4.01 62 3.02 62 2 62 C0.12374815 61.89545811 -1.75131504 61.76836903 -3.625 61.625 C-4.60726562 61.55539063 -5.58953125 61.48578125 -6.6015625 61.4140625 C-7.39304687 61.27742188 -8.18453125 61.14078125 -9 61 C-9.33 60.34 -9.66 59.68 -10 59 C-6.04 59 -2.08 59 2 59 C2.10456983 52.16708668 2.14323616 45.33807751 2.12207031 38.50439453 C2.12401153 36.18237033 2.14364953 33.86028842 2.18164062 31.53857422 C3.168655 18.38327157 3.168655 18.38327157 -1.30175781 6.65234375 C-3.80937254 4.64625196 -6.03213375 3.20360841 -9 2 C-7.68 1.67 -6.36 1.34 -5 1 C-4.34 1.99 -3.68 2.98 -3 4 C-2.01 3.67 -1.02 3.34 0 3 C0 2.01 0 1.02 0 0 Z M10 33 C10 41.91 10 50.82 10 60 C10.99 60 11.98 60 13 60 C13 51.09 13 42.18 13 33 C12.01 33 11.02 33 10 33 Z " fill="#F3CA40" transform="translate(73,43)"/>
<path d="M0 0 C1.984375 0.95703125 1.984375 0.95703125 4 3 C4.52039056 5.90294794 4.37530743 8.75000457 4.25 11.6875 C4.23195313 12.48478516 4.21390625 13.28207031 4.1953125 14.10351562 C4.14822247 16.06952449 4.07647899 18.03491494 4 20 C4.63808594 19.98839844 5.27617188 19.97679688 5.93359375 19.96484375 C6.75988281 19.95582031 7.58617188 19.94679688 8.4375 19.9375 C9.26121094 19.92589844 10.08492188 19.91429688 10.93359375 19.90234375 C13 20 13 20 14 21 C14.08847743 23.52094076 14.11527301 26.01430893 14.09765625 28.53515625 C14.0962413 29.28840683 14.09482635 30.04165741 14.09336853 30.81773376 C14.08775376 33.2326956 14.07519883 35.64756601 14.0625 38.0625 C14.0574869 39.69596221 14.05292366 41.32942586 14.04882812 42.96289062 C14.03777954 46.97529585 14.02050506 50.98763241 14 55 C16.97 55 19.94 55 23 55 C24.125 59.75 24.125 59.75 23 62 C-8.68 62 -40.36 62 -73 62 C-73 59.69 -73 57.38 -73 55 C-69.7 55 -66.4 55 -63 55 C-63.01571045 53.67758301 -63.0314209 52.35516602 -63.04760742 50.99267578 C-63.10179782 46.09885723 -63.13631034 41.20506533 -63.16479492 36.31103516 C-63.17990645 34.19054712 -63.2003964 32.07009046 -63.22631836 29.94970703 C-63.26259786 26.90649689 -63.27970242 23.86369897 -63.29296875 20.8203125 C-63.30845261 19.86818878 -63.32393646 18.91606506 -63.33988953 17.93508911 C-63.34011612 17.05432709 -63.34034271 16.17356506 -63.34057617 15.26611328 C-63.35056892 14.10029221 -63.35056892 14.10029221 -63.36076355 12.91091919 C-63.24171158 12.28031586 -63.12265961 11.64971252 -63 11 C-62.01 10.34 -61.02 9.68 -60 9 C-60.16109253 9.5695491 -60.32218506 10.13909821 -60.48815918 10.72590637 C-61.00332351 13.01476626 -61.15042626 15.04292915 -61.18945312 17.38549805 C-61.20617065 18.24286057 -61.22288818 19.10022308 -61.2401123 19.98356628 C-61.25368774 20.9003566 -61.26726318 21.81714691 -61.28125 22.76171875 C-61.29965942 23.70811722 -61.31806885 24.65451569 -61.33703613 25.6295929 C-61.41570186 29.67718248 -61.48369951 33.72493336 -61.55224609 37.77270508 C-61.60381422 40.72746411 -61.66110115 43.68207314 -61.71875 46.63671875 C-61.73232544 47.55958176 -61.74590088 48.48244476 -61.7598877 49.43327332 C-61.77660522 50.28117935 -61.79332275 51.12908539 -61.81054688 52.00268555 C-61.82307495 52.7522905 -61.83560303 53.50189545 -61.84851074 54.2742157 C-62 56 -62 56 -63 57 C-64.51928038 57.07179964 -66.04167482 57.08392007 -67.5625 57.0625 C-68.38878906 57.05347656 -69.21507813 57.04445312 -70.06640625 57.03515625 C-70.70449219 57.02355469 -71.34257813 57.01195312 -72 57 C-71.67 57.99 -71.34 58.98 -71 60 C-40.31 60.33 -9.62 60.66 22 61 C22 59.35 22 57.7 22 56 C18.7 56 15.4 56 12 56 C12 44.45 12 32.9 12 21 C8.7 21 5.4 21 2 21 C1.93941406 19.73542969 1.87882812 18.47085938 1.81640625 17.16796875 C1.73199096 15.50780129 1.64734345 13.84764563 1.5625 12.1875 C1.52318359 11.35412109 1.48386719 10.52074219 1.44335938 9.66210938 C1.40146484 8.85966797 1.35957031 8.05722656 1.31640625 7.23046875 C1.27974854 6.49207764 1.24309082 5.75368652 1.20532227 4.99291992 C1.05157859 2.792505 1.05157859 2.792505 0 0 Z " fill="#E1C45C" transform="translate(79,48)"/>
<path d="M0 0 C0.01345459 0.90242432 0.02690918 1.80484863 0.04077148 2.73461914 C0.11216165 6.1125241 0.22302768 9.4844715 0.36010742 12.86010742 C0.41124571 14.31537071 0.44701201 15.77126452 0.46655273 17.22729492 C0.3976518 25.96443037 0.3976518 25.96443037 4.10595703 33.55810547 C6.33472544 35.29159201 8.48522329 36.72416546 11 38 C7.98968256 38.93423645 7.13349732 39.04449911 4 38 C3.67 37.01 3.34 36.02 3 35 C1.515 34.505 1.515 34.505 0 34 C-1.11911712 30.64264863 -1.11365586 28.11794614 -1.09765625 24.58203125 C-1.09443359 23.32841797 -1.09121094 22.07480469 -1.08789062 20.78320312 C-1.07951172 19.47287109 -1.07113281 18.16253906 -1.0625 16.8125 C-1.05748317 15.47721519 -1.05292059 14.14192859 -1.04882812 12.80664062 C-1.03702695 9.53771527 -1.02056297 6.26888009 -1 3 C-1.99 3 -2.98 3 -4 3 C-4.66 4.32 -5.32 5.64 -6 7 C-6.66 7 -7.32 7 -8 7 C-7.01 8.485 -7.01 8.485 -6 10 C-5.81549805 12.83959994 -5.74781092 15.57965823 -5.77294922 18.41870117 C-5.77265717 19.27745346 -5.77236511 20.13620575 -5.77206421 21.02098083 C-5.77345845 23.86174597 -5.7890241 26.70224939 -5.8046875 29.54296875 C-5.80841729 31.51166134 -5.81126442 33.48035579 -5.81326294 35.4490509 C-5.82090204 40.63256956 -5.84055293 45.81597628 -5.8626709 50.99945068 C-5.88312335 56.28802984 -5.89226337 61.57662707 -5.90234375 66.86523438 C-5.92379853 77.24353879 -5.95793785 87.62176009 -6 98 C-6.33 98 -6.66 98 -7 98 C-7 70.61 -7 43.22 -7 15 C-9.33075929 15.95865509 -9.33075929 15.95865509 -11 19 C-11.66 18.67 -12.32 18.34 -13 18 C-13.625 15.9375 -13.625 15.9375 -14 14 C-16.96175123 14.61277612 -18.38058783 15.25372522 -21 17 C-23.1875 16.625 -23.1875 16.625 -25 16 C-21.76523527 13.7153857 -18.52625238 11.43690274 -15.28320312 9.1640625 C-14.18013174 8.38970379 -13.07823599 7.61366763 -11.97753906 6.8359375 C-10.39696965 5.71957136 -8.81182877 4.60968639 -7.2265625 3.5 C-6.27346191 2.8296875 -5.32036133 2.159375 -4.33837891 1.46875 C-2 0 -2 0 0 0 Z " fill="#E5C556" transform="translate(62,4)"/>
<path d="M0 0 C0.66 0 1.32 0 2 0 C2 8.91 2 17.82 2 27 C2.99 27 3.98 27 5 27 C5 18.09 5 9.18 5 0 C5.33 0 5.66 0 6 0 C6.22506224 4.45765572 6.4272243 8.91605688 6.625 13.375 C6.68945312 14.64601563 6.75390625 15.91703125 6.8203125 17.2265625 C6.871875 18.43828125 6.9234375 19.65 6.9765625 20.8984375 C7.02893066 22.01911621 7.08129883 23.13979492 7.13525391 24.29443359 C7 27 7 27 5 29 C3.35 28.67 1.7 28.34 0 28 C0 18.76 0 9.52 0 0 Z " fill="#E2C662" transform="translate(81,76)"/>
<path d="M0 0 C6.79194631 4.13422819 6.79194631 4.13422819 8 8 C8 9.32 8 10.64 8 12 C6.35 11.67 4.7 11.34 3 11 C3 10.34 3 9.68 3 9 C2.319375 8.95875 1.63875 8.9175 0.9375 8.875 C-3.25515787 7.62612319 -5.8592439 4.95973269 -9 2 C-7.68 1.67 -6.36 1.34 -5 1 C-4.34 1.99 -3.68 2.98 -3 4 C-2.01 3.67 -1.02 3.34 0 3 C0 2.01 0 1.02 0 0 Z " fill="#F7CC34" transform="translate(73,43)"/>
<path d="M0 0 C0.66 0 1.32 0 2 0 C2.05796132 4.10410755 2.09358313 8.20811016 2.125 12.3125 C2.14175781 13.47974609 2.15851562 14.64699219 2.17578125 15.84960938 C2.18222656 16.96787109 2.18867187 18.08613281 2.1953125 19.23828125 C2.20578613 20.26993408 2.21625977 21.30158691 2.22705078 22.36450195 C2 25 2 25 0 28 C-0.99 27.67 -1.98 27.34 -3 27 C-2.34 26.34 -1.68 25.68 -1 25 C-0.62826984 22.3817233 -0.62826984 22.3817233 -0.5859375 19.3359375 C-0.54726563 18.21445312 -0.50859375 17.09296875 -0.46875 15.9375 C-0.4378125 14.761875 -0.406875 13.58625 -0.375 12.375 C-0.33632813 11.19164062 -0.29765625 10.00828125 -0.2578125 8.7890625 C-0.16331155 5.85953309 -0.07775442 2.93001403 0 0 Z " fill="#E4C653" transform="translate(35,21)"/>
<path d="M0 0 C1.98 1.32 3.96 2.64 6 4 C3 5 3 5 1 5 C1 6.32 1 7.64 1 9 C-2.94139078 7.33248852 -5.7892812 4.77289351 -9 2 C-7.68 1.67 -6.36 1.34 -5 1 C-4.34 1.99 -3.68 2.98 -3 4 C-2.01 3.67 -1.02 3.34 0 3 C0 2.01 0 1.02 0 0 Z " fill="#E8CB56" transform="translate(73,43)"/>
<path d="M0 0 C2.97 0 5.94 0 9 0 C9 1.65 9 3.3 9 5 C6.69 5 4.38 5 2 5 C2.33 4.01 2.66 3.02 3 2 C2.01 2 1.02 2 0 2 C0 1.34 0 0.68 0 0 Z " fill="#F5CB3B" transform="translate(92,104)"/>
<path d="M0 0 C2 0 4 0 6 0 C6.33 2.64 6.66 5.28 7 8 C6.34 8 5.68 8 5 8 C4.67 7.01 4.34 6.02 4 5 C3.01 5 2.02 5 1 5 C0.67 3.35 0.34 1.7 0 0 Z " fill="#F7D126" transform="translate(45,20)"/>
<path d="M0 0 C0.33 0.99 0.66 1.98 1 3 C0.67 3.33 0.34 3.66 0 4 C-0.15582303 5.34015221 -0.25044142 6.68758903 -0.31640625 8.03515625 C-0.37924805 9.24848633 -0.37924805 9.24848633 -0.44335938 10.48632812 C-0.48267578 11.33646484 -0.52199219 12.18660156 -0.5625 13.0625 C-0.60568359 13.91650391 -0.64886719 14.77050781 -0.69335938 15.65039062 C-0.79976702 17.76672037 -0.90041731 19.88333813 -1 22 C-1.33 22 -1.66 22 -2 22 C-2.05790353 18.70840684 -2.09356261 15.41694397 -2.125 12.125 C-2.14175781 11.18785156 -2.15851562 10.25070313 -2.17578125 9.28515625 C-2.18544922 7.94130859 -2.18544922 7.94130859 -2.1953125 6.5703125 C-2.20578613 5.74289551 -2.21625977 4.91547852 -2.22705078 4.06298828 C-2 2 -2 2 0 0 Z " fill="#E5C458" transform="translate(18,57)"/>
<path d="M0 0 C0 0.66 0 1.32 0 2 C-0.9590625 2.1546875 -0.9590625 2.1546875 -1.9375 2.3125 C-2.618125 2.539375 -3.29875 2.76625 -4 3 C-4.33 3.99 -4.66 4.98 -5 6 C-8 8 -8 8 -10.1875 7.625 C-10.785625 7.41875 -11.38375 7.2125 -12 7 C-10.3790787 5.82767315 -8.75313167 4.6622923 -7.125 3.5 C-6.22007813 2.8503125 -5.31515625 2.200625 -4.3828125 1.53125 C-2 0 -2 0 0 0 Z " fill="#E5CA56" transform="translate(49,13)"/>
<path d="M0 0 C0.99 1.32 1.98 2.64 3 4 C2.01 4.495 2.01 4.495 1 5 C1 6.32 1 7.64 1 9 C0.01 9.33 -0.98 9.66 -2 10 C-2.17942163 6.05272412 -2.09350689 3.4019487 0 0 Z " fill="#FAC83E" transform="translate(49,91)"/>
<path d="M0 0 C0 3.63 0 7.26 0 11 C-0.33 11 -0.66 11 -1 11 C-1 8.36 -1 5.72 -1 3 C-2.65 3.33 -4.3 3.66 -6 4 C-2.25 0 -2.25 0 0 0 Z " fill="#DDC865" transform="translate(62,4)"/>
<path d="M0 0 C2.3125 0.1875 2.3125 0.1875 4 1 C1.06171403 3.50298434 -1.17902761 4.46930939 -5 5 C-2.75 2.4375 -2.75 2.4375 0 0 Z " fill="#E5C94B" transform="translate(54,8)"/>
</svg>
